<?xml version="1.0"?>
<svg xmlns="http://www.w3.org/2000/svg" version="1.1" x="0" y="0" viewBox="0 0 100 100" enable-background="new 0 0 100 100" xml:space="preserve">
<path fill="#000000" d="M10.7 52.7C10.8 52.7 10.9 52.8 11 52.8c0.4 0 0.8-0.3 0.9-0.7 0.2-0.5-0.1-1.1-0.6-1.3 -1.1-0.4-2.3-0.9-3-1.3 2.1-1.2 7.6-3.8 10.8-4.9 0.7 0.6 2.4 2.3 2.8 4.3 0.5 3 0.7 6.5 0.7 6.5 0 0.5 0.5 0.9 1 0.9 0 0 0 0 0.1 0 0.6 0 1-0.5 0.9-1.1 0-0.1-0.2-3-0.6-5.9 1.6-0.5 5.2-1.4 8.8-1.4 -1 0.9-2.1 1.6-2.8 1.7 -1.7 0.2-2.7 0.1-2.7 0.1 -0.5-0.1-1.1 0.3-1.2 0.8 -0.1 0.5 0.3 1.1 0.8 1.2 0.1 0 0.5 0.1 1.3 0.1 0.5 0 1.2 0 2-0.1 1.9-0.2 4.3-2.5 5.2-3.5 2.1 0 11.9 0.1 20.6 0.9 9.9 0.9 20 2.1 20.1 2.1 0 0 0.1 0 0.1 0 0.5 0 0.9-0.4 1-0.9 0.1-0.5-0.3-1-0.9-1.1 -0.1 0-10.2-1.2-20.1-2.1 -9.6-0.9-20.3-0.9-21.2-0.9 -4.4-0.7-9.4 0.6-11.5 1.2 -0.5-1.4-1.4-2.6-2.1-3.4 1-0.2 2.3-0.4 3.8-0.7 3.4-0.6 7.6-1.4 9.1-1.5 0.1 0 0.2 0 0.3-0.1 0.1 0 8.8-4.1 11.9-4.5 0.5-0.1 0.9-0.6 0.8-1.1 -0.1-0.5-0.6-0.9-1.1-0.8 -3.2 0.5-11 4.1-12.2 4.6 -1.6 0.2-5.6 0.9-9.1 1.5 -1.9 0.3-3.5 0.6-4.6 0.8 -1.7 0.3-5.4 1.8-8.2 3.1C5.8 48.3 5.8 48.9 5.8 49.5 5.8 50 5.8 51 10.7 52.7zM39.9 40.3c0 0.6 0.4 1 0.9 1.1 0.2 0 16.8 1.4 19.9 2.2C60.8 43.6 60.9 43.6 61 43.6c0.1 0 0.1 0 0.2 0l5-1c0.5-0.1 0.9-0.6 0.8-1.2 -0.1-0.5-0.6-0.9-1.2-0.8l-4.8 1c-3.8-0.9-19.4-2.2-20.1-2.2C40.4 39.3 39.9 39.7 39.9 40.3zM96.3 43.9c-0.2-0.4-0.6-0.6-1-0.5 -3 0.5-9.9 4.7-11.8 6 -0.5-0.2-1.2-0.5-1.9-0.7l0.4-0.8c0.2-0.5 0-1.1-0.4-1.3 -0.5-0.2-1.1 0-1.3 0.4l-0.5 0.9c-0.6-0.2-1.2-0.4-1.8-0.7l0.3-0.8c0.2-0.5-0.1-1.1-0.6-1.3 -0.5-0.2-1.1 0.1-1.3 0.6l-0.3 0.8c-0.8-0.3-1.7-0.6-2.5-0.9l0.2-0.6c0.2-0.5-0.1-1.1-0.6-1.3 -0.5-0.2-1.1 0.1-1.3 0.6l-0.3 0.7c-2.3-0.8-4-1.4-4.1-1.4 -0.5-0.2-1.1 0.1-1.3 0.6 -0.2 0.5 0.1 1.1 0.6 1.3 0.1 0 12.7 4.4 16.3 6 0.3 0.1 0.7 0.1 0.9-0.1 1.5-1 4.8-3 7.6-4.4l-4.2 4.5c-0.3 0.3-0.3 0.7-0.2 1.1 0.1 0.1 1.6 3.3 2.6 4.9 0.2 0.3 0.5 0.4 0.8 0.4 0.2 0 0.4-0.1 0.6-0.2 0.5-0.3 0.6-0.9 0.3-1.4 -0.7-1-1.7-3-2.2-4l6.8-7.2C96.4 44.7 96.5 44.3 96.3 43.9z"/>
<circle fill="#000000" cx="14.2" cy="49.3" r="1.5"/>
<path fill="#000000" d="M35.7 61.9c-0.5-0.3-1.1-0.1-1.4 0.4l-0.6 1.1c-0.9-1.3-2.1-3.4-3-4.8 -0.2-0.3-0.5-0.5-0.8-0.5C16.9 57.5 7.4 51.8 7.3 51.8c-0.5-0.3-1.1-0.1-1.4 0.3 -0.3 0.5-0.1 1.1 0.3 1.4 0.4 0.2 9.7 5.8 23 6.6 0.8 1.3 2.9 4.9 3.8 5.9 0.2 0.2 0.5 0.3 0.8 0.3 0 0 0.1 0 0.1 0 0.3 0 0.6-0.2 0.8-0.5l1.4-2.5C36.3 62.7 36.2 62.1 35.7 61.9zM67.1 58.4l-4-1c-0.1 0-0.3 0-0.4 0 -0.1 0-6.4 0.9-12.7 1.5 -6.3 0.6-16.5-0.3-16.6-0.3 -0.6-0.1-1 0.4-1.1 0.9 0 0.6 0.4 1 0.9 1.1 0.3 0 6 0.5 11.5 0.5 1.9 0 3.8-0.1 5.5-0.2 5.8-0.6 11.5-1.3 12.6-1.5l3.8 1c0.5 0.1 1.1-0.2 1.2-0.7C67.9 59.1 67.6 58.5 67.1 58.4zM93.3 61.8c-1.6-1-3.8-3.6-5.6-5.8C85 52.9 84 51.8 83 51.8c-1.4 0-11.6 3.2-14.7 4.2 -0.5 0.2-0.8 0.7-0.7 1.3 0.2 0.5 0.7 0.8 1.3 0.7 1.1-0.3 2.3-0.7 3.5-1.1l0.3 1C72.8 58.2 73.2 58.5 73.7 58.5c0.1 0 0.2 0 0.3 0 0.5-0.2 0.8-0.7 0.7-1.2l-0.3-1c0.8-0.3 1.7-0.5 2.5-0.7l0.2 0.7c0.1 0.5 0.5 0.8 1 0.8 0.1 0 0.2 0 0.2 0 0.5-0.1 0.9-0.7 0.7-1.2l-0.2-0.8c2-0.6 3.7-1 4.2-1.1 0.6 0.4 2.1 2.2 3.3 3.5 2 2.4 4.3 5 6.1 6.2 0.2 0.1 0.3 0.1 0.5 0.1 0.3 0 0.7-0.2 0.9-0.5C94 62.7 93.8 62.1 93.3 61.8z"/>
</svg>
